# xmcd CD database file
#
# Track frame offsets:
#	150
#	21079
#	40400
#
# Disc length: 740 seconds
#
# Revision: 9
# Processed by: cddbd v1.5.2PL0 Copyright (c) Steve Scherf et al.
# Submitted via: CDex 1.70beta3
#
DISCID=1d02e203
DTITLE=Various Artist - 涼宮ハルヒの詰合 ～TVアニメ「涼宮ハルヒの憂鬱」劇中歌集シングル～
DYEAR=2006
DGENRE=Anime
TTITLE0=涼宮ハルヒ (CV:平野綾) - God knows...
TTITLE1=涼宮ハルヒ (CV:平野綾) - Lost my music
TTITLE2=朝比奈みくる (CV:後藤邑子) - 恋のミクル伝説
EXTD=YEAR: 2006
EXTT0=
EXTT1=
EXTT2=
PLAYORDER=
